# xmcd
#
# Track frame offsets: 
#        150
#        8345
#        25225
#        33860
#        50137
#        63692
#        74740
#        88555
#        99245
#        115175
#        128902
#        141590
#        158462
#        169305
#
# Disc length: 2453 seconds
#
# Revision: 0
# Processed by: cddbd v1.5.2PL0 Copyright (c) Steve Scherf et al.
# Submitted via: ExactAudioCopy v1.3
#
DISCID=bc09930e
DTITLE=Osborne Brothers - Detroit to Wheeling
DYEAR=2003
DGENRE=Bluegrass
TTITLE0=You Go To Your Church (and I'll Go To Mine)
TTITLE1=Banjo Gospel Medley
TTITLE2=The Black Sheep Returned to the Fold
TTITLE3=The End of the World
TTITLE4=Heaven
TTITLE5=Rock of Ages
TTITLE6=Gone Home
TTITLE7=Shuckin' the Corn
TTITLE8=The Hill of Roan County
TTITLE9=Here Today and Gone Tomorrow
TTITLE10=They Sleep Together Now at Rest
TTITLE11=Highway of Sorrow
TTITLE12=Who Done it?
TTITLE13=We'll Meet Again Sweetheart
EXTD=
EXTT0=
EXTT1=
EXTT2=
EXTT3=
EXTT4=
EXTT5=
EXTT6=
EXTT7=
EXTT8=
EXTT9=
EXTT10=
EXTT11=
EXTT12=
EXTT13=
PLAYORDER=
